<svg width="29" height="29" viewBox="0 0 29 29" fill="none" xmlns="http://www.w3.org/2000/svg">
<path d="M22.8312 25.8645C22.5923 25.8214 22.3892 25.7809 22.1597 25.729C21.773 25.6232 21.4127 25.5213 21.0685 25.4013L20.8519 25.3163C20.532 25.1916 20.2134 25.0662 19.8936 24.9138C18.969 24.4607 18.1794 23.9826 17.4729 23.4492C16.7433 22.924 15.9929 22.2395 15.1878 21.367L14.9664 21.1047C14.6898 20.7757 14.3753 20.4028 14.0959 19.9726L13.9589 19.7743C13.8435 19.6085 13.7281 19.4412 13.635 19.2868L13.1848 18.475C13.089 18.3152 13.0026 18.1183 12.921 17.9321L12.6294 17.2747C12.5606 17.0933 12.5221 16.9767 12.485 16.86L12.2886 16.2222L12.0031 14.9039C11.8918 14.1703 11.6799 13.4346 11.3499 12.6234C11.0239 11.8473 10.5671 11.0652 10.1642 10.3936L10.1183 10.3282C9.68232 9.68826 9.23287 9.02609 8.76856 8.48666C8.25364 7.84339 7.72793 7.29587 7.23462 6.79823C7.0929 6.65259 6.95656 6.52986 6.82227 6.41119C6.68933 6.29049 6.58 6.19137 6.45312 6.06595C6.36674 5.99042 6.23987 5.88929 6.11705 5.78949C5.9976 5.69441 5.88422 5.60339 5.73306 5.47257L4.93201 4.88054L5.53127 3.46992L5.58459 3.48611L5.69459 3.05591L6.20816 3.15098C6.39103 3.18537 6.58877 3.22516 6.81215 3.27573C7.19816 3.38092 7.55854 3.48408 7.90137 3.60208L8.06805 3.66681C8.39603 3.79627 8.73887 3.93113 9.07225 4.08757C10.0056 4.54744 10.7945 5.02552 11.4957 5.55686C11.661 5.67554 11.852 5.8205 12.0436 5.97761C12.6065 6.43681 13.1734 6.9776 13.778 7.63031L14.0392 7.94049C14.3341 8.29246 14.6115 8.62489 14.8713 9.02475L15.0272 9.254C15.1325 9.40235 15.2418 9.56216 15.3302 9.70511L15.7682 10.4907C16.3998 11.7219 16.7899 12.8871 16.9688 14.0651L16.9849 14.1595L16.9944 14.1959L17.1294 14.9235L17.4297 15.8574L17.4843 16.0118C17.5255 16.1332 17.5545 16.2275 17.5903 16.2977C17.9682 17.177 18.4413 17.9874 18.8111 18.5984L18.8523 18.655C19.3213 19.3455 19.7545 19.9834 20.2081 20.5073C20.7452 21.1782 21.3081 21.7594 21.74 22.1937C21.8885 22.3488 22.0275 22.4729 22.1638 22.5949L22.2191 22.6455C22.3352 22.7506 22.4229 22.8316 22.5188 22.9246C22.6186 23.0137 22.7523 23.1202 22.8825 23.2254L22.9291 23.2631C23.0289 23.344 23.1234 23.4196 23.2395 23.522L23.9616 24.0561L23.4818 25.495L23.4649 25.4923L23.363 25.9617L22.8312 25.8645Z" fill="white"/>
<path d="M17.8994 29C13.6599 29 9.17818 26.9508 5.60278 23.3771C-0.769883 17.0111 -1.85911 8.1239 3.12268 3.14627C3.27992 2.98982 3.5141 2.94128 3.71791 3.0195C3.7638 3.03703 3.80632 3.06131 3.84613 3.08827C3.89337 3.11524 3.98515 3.16649 4.12012 3.23527L4.52909 3.44633C4.63774 3.49689 4.76056 3.57646 4.88743 3.66074C4.9475 3.70053 5.00756 3.741 5.07302 3.7801C5.45431 4.00666 5.88151 4.32291 6.39912 4.71332C6.53409 4.82997 6.63937 4.91426 6.746 5.00056C6.88501 5.11115 7.02538 5.22443 7.16441 5.3512C7.2825 5.46583 7.38576 5.55888 7.49104 5.65329C7.64422 5.79017 7.80078 5.93109 7.95196 6.08887C8.46081 6.60135 9.01013 7.17179 9.5318 7.82585C10.0359 8.41114 10.5029 9.09959 10.9551 9.76377L11.034 9.88043C11.4632 10.5945 11.9316 11.3989 12.2839 12.2425C12.6422 13.1204 12.8791 13.9403 12.9898 14.6875L13.1659 15.6065C13.1713 15.6301 13.1754 15.6557 13.1841 15.6854L13.4507 16.5607C13.4831 16.6618 13.5155 16.7629 13.5506 16.8573L13.7186 17.2403C13.7571 17.3199 13.7982 17.4157 13.8401 17.5114C13.9109 17.6752 13.9818 17.8398 14.0689 17.9888L14.496 18.7602C14.5817 18.9018 14.6864 19.0515 14.7896 19.1998L14.9455 19.425C15.1837 19.7946 15.4516 20.1128 15.7351 20.45L15.9274 20.6792C16.6833 21.4985 17.3952 22.1492 18.0849 22.6455C18.7368 23.139 19.4664 23.5801 20.3261 24.0028C20.6211 24.1417 20.9247 24.2611 21.2122 24.3744L21.3958 24.4472C21.7231 24.5604 22.0625 24.6556 22.3757 24.7425C23.0674 24.8989 23.5641 24.9738 23.9629 24.9785C24.1148 24.9913 24.2167 24.9947 24.3125 24.9947C24.5278 24.9947 24.7134 24.9752 24.8638 24.9596L25.0184 24.9455C25.1932 24.9279 25.3012 24.9125 25.3349 24.9064C25.4287 24.8895 25.538 24.8963 25.6298 24.9286C25.81 24.994 25.9511 25.1484 25.9929 25.3345C26.0341 25.5213 25.9841 25.7182 25.8498 25.8524C23.7895 27.9117 21.0408 29 17.8994 29ZM3.62478 4.23457C-0.577553 8.82584 0.590626 16.7926 6.39101 22.5888C9.7599 25.9549 13.9541 27.8847 17.8994 27.8847C20.1547 27.8847 22.1813 27.2684 23.8448 26.0904C23.4183 26.0796 22.8649 25.9967 22.1024 25.8241C21.7426 25.7243 21.3796 25.6218 21.0064 25.4923L20.8032 25.4127C20.4942 25.2907 20.1669 25.1619 19.8402 25.0068C18.9089 24.5497 18.12 24.0709 17.4216 23.5423C16.6799 23.0096 15.9132 22.3097 15.0872 21.4135L14.8807 21.1674C14.5878 20.8181 14.2835 20.4567 14.0135 20.04L13.8738 19.8377C13.7577 19.6698 13.639 19.4999 13.531 19.3212L13.0984 18.5404C12.9911 18.3556 12.902 18.1533 12.8163 17.9564C12.7785 17.8715 12.7414 17.7845 12.7016 17.7002L12.5147 17.2727C12.4627 17.1338 12.4249 17.0192 12.3878 16.9032L12.1091 15.9882C12.0895 15.9174 12.0794 15.8681 12.0699 15.8196C12.0693 15.8122 12.0564 15.7515 12.0544 15.7441L11.8877 14.8641C11.7878 14.1939 11.5753 13.4589 11.2527 12.6686C10.9301 11.8972 10.4847 11.1339 10.0926 10.4799L10.0312 10.3909C9.57701 9.72264 9.14915 9.09015 8.67202 8.53724C8.16994 7.90946 7.64625 7.36396 7.15293 6.86701C7.01526 6.72406 6.87893 6.60269 6.74531 6.48401C6.62722 6.3768 6.50978 6.27161 6.39776 6.1617C6.29384 6.06797 6.16899 5.96818 6.04684 5.86906C5.92537 5.77195 5.80659 5.67554 5.69321 5.57575C5.23701 5.23387 4.8348 4.93583 4.50209 4.73759C4.42179 4.6904 4.34485 4.63914 4.26994 4.58924C4.18963 4.53666 4.11472 4.48405 4.03644 4.44697L3.62478 4.23457Z" fill="white"/>
<path d="M25.4551 26.0163C25.3916 26.0163 25.3269 26.0054 25.2654 25.9832L25.2519 25.9785C25.2013 25.9603 25.1548 25.936 25.1129 25.9057L24.4496 25.5523C24.3497 25.5024 24.2383 25.431 24.1202 25.3534C24.0548 25.311 23.9852 25.2658 23.9124 25.2226C23.5129 24.9893 23.0884 24.671 22.5748 24.2799C22.4533 24.1761 22.3555 24.0979 22.2569 24.0183C22.1085 23.8997 21.9587 23.7776 21.8102 23.6434C21.6954 23.5315 21.5922 23.4385 21.4869 23.344C21.3337 23.2065 21.1778 23.0662 21.0267 22.9098C20.5468 22.4277 19.9806 21.8383 19.4468 21.1701C18.938 20.5808 18.469 19.8889 18.0135 19.2187L17.9446 19.1169C17.5484 18.4655 17.0639 17.6328 16.6927 16.7596C16.634 16.6443 16.5821 16.4973 16.5328 16.3496C16.5106 16.2855 16.4896 16.2215 16.4646 16.1574L16.165 15.2215C16.1502 15.1777 16.136 15.1102 16.1238 15.0408C16.1218 15.034 16.1117 14.9788 16.1103 14.9734L16.0044 14.3901C15.997 14.3678 15.9915 14.3442 15.9875 14.32C15.9821 14.2842 15.9767 14.2492 15.9713 14.2128C15.8067 13.144 15.451 12.086 14.8875 10.9836L14.4731 10.2398C14.3928 10.109 14.2936 9.96673 14.1951 9.82445L14.023 9.57226C13.7949 9.22028 13.5351 8.91146 13.2611 8.5851L13.0411 8.32077C12.2799 7.49948 11.5672 6.84948 10.8843 6.35858C10.2357 5.8677 9.5062 5.42672 8.6444 5.00326C8.33194 4.85491 8.01206 4.73084 7.70973 4.61081L7.57476 4.55755C7.24812 4.44494 6.90936 4.34784 6.59486 4.26086C5.90314 4.1051 5.40172 4.02823 4.9941 4.01946C4.84834 4.00732 4.75048 4.0026 4.6587 4.0026C4.45489 4.0026 4.28415 4.02283 4.14176 4.03699L3.95212 4.05587C3.80365 4.07138 3.69568 4.08621 3.64507 4.09363C3.63157 4.0943 3.58298 4.10105 3.57015 4.10172C3.48918 4.1051 3.40751 4.0943 3.33194 4.06598C3.15513 3.99789 3.01812 3.84347 2.97831 3.65871C2.93984 3.47396 2.98978 3.27908 3.12273 3.14626C5.18374 1.08831 7.93311 0 11.0739 0C15.3133 0 19.7957 2.0485 23.3718 5.62226C26.4903 8.73749 28.4535 12.5243 28.9016 16.2855C29.3483 20.0427 28.2652 23.4398 25.8499 25.8524C25.7433 25.9596 25.6002 26.0163 25.4551 26.0163ZM5.1284 2.90823C5.56436 2.92374 6.11572 3.0087 6.86819 3.17929C7.22856 3.27908 7.59163 3.38293 7.96414 3.51239L8.11869 3.57241C8.4433 3.70053 8.78544 3.83673 9.12895 3.99722C10.0643 4.45843 10.8525 4.93582 11.547 5.4611C12.2805 5.98907 13.0485 6.6863 13.8813 7.58782L14.1168 7.86832C14.4009 8.20615 14.6938 8.55611 14.9557 8.96002L15.1116 9.18792C15.2229 9.34908 15.3349 9.51023 15.4382 9.68015L15.8721 10.4583C16.5085 11.7017 16.902 12.8837 17.0815 14.0887L17.4148 15.5189L17.5073 15.7596C17.5357 15.8324 17.5633 15.9127 17.5903 15.9929C17.6247 16.0927 17.6578 16.1952 17.705 16.2936C18.0634 17.1311 18.523 17.9187 18.8847 18.5141L18.9373 18.5916C19.3942 19.2659 19.8261 19.9018 20.3059 20.4581C20.8202 21.1013 21.3607 21.663 21.8237 22.1283C21.9627 22.2712 22.099 22.3946 22.234 22.5147C22.3508 22.6199 22.4662 22.7237 22.5768 22.8329C22.6929 22.9381 22.8265 23.0453 22.9568 23.1498C23.0674 23.2388 23.1741 23.3252 23.2787 23.4155C23.7335 23.7607 24.1324 24.0581 24.4786 24.2624C24.5683 24.3137 24.6513 24.3683 24.7296 24.4188C24.8126 24.4728 24.8882 24.524 24.9611 24.5611L25.3478 24.7641C27.3137 22.6185 28.1801 19.6732 27.7928 16.4177C27.3744 12.9033 25.5239 9.35043 22.5829 6.41119C19.2154 3.04511 15.0191 1.11529 11.0739 1.11529C8.81852 1.11529 6.79192 1.73159 5.1284 2.90823Z" fill="white"/>
<path d="M24.3124 26.11C24.1835 26.11 24.0479 26.106 23.9028 26.0911C23.4689 26.0884 22.9 26.0048 22.1023 25.8241C21.7426 25.7243 21.3795 25.6218 21.0063 25.4923L20.8032 25.4128C20.4941 25.2907 20.1668 25.1619 19.8402 25.0069C18.9088 24.5497 18.12 24.0709 17.4215 23.5423C16.6798 23.0096 15.9132 22.3097 15.0872 21.4135L14.8806 21.1674C14.5878 20.8181 14.2834 20.4567 14.0134 20.04L13.8738 19.8377C13.7577 19.6698 13.6389 19.4999 13.5309 19.3212L13.0983 18.5404C12.991 18.3556 12.9013 18.1533 12.8163 17.9564C12.7785 17.8715 12.7414 17.7845 12.7015 17.7002L12.5146 17.2727C12.4626 17.1338 12.4248 17.0192 12.3877 16.9032L12.109 15.9882C12.0894 15.9174 12.0793 15.8682 12.0699 15.8196C12.0692 15.8122 12.0564 15.7515 12.0543 15.7441L11.8877 14.8641C11.7878 14.1939 11.5752 13.4589 11.2526 12.6686C10.93 11.8973 10.4846 11.134 10.0925 10.4799L10.0311 10.3909C9.57694 9.72265 9.14909 9.09017 8.67196 8.53725C8.16988 7.90948 7.64619 7.36397 7.15286 6.86702C7.0152 6.72408 6.87886 6.60271 6.74524 6.48403C6.62715 6.37682 6.50972 6.27162 6.39769 6.16171C6.29377 6.06798 6.16892 5.96819 6.04677 5.86907C5.9253 5.77197 5.80652 5.67555 5.69315 5.57576C5.23695 5.23388 4.83473 4.93584 4.50203 4.7376C4.42172 4.69041 4.34479 4.63915 4.26987 4.58926C4.18957 4.53667 4.11465 4.48407 4.03637 4.44698L3.60581 4.22515C3.36557 4.10174 3.23937 4.0269 3.23937 4.0269C3.04704 3.91228 2.94109 3.6938 2.97145 3.47128C3.00182 3.25011 3.16109 3.06805 3.37636 3.00872C3.40538 3.0013 3.43778 2.99523 3.46882 2.99187C3.54845 2.9804 3.66992 2.96355 3.85146 2.94466L4.02355 2.92848C4.28404 2.89949 4.62552 2.86577 5.05743 2.90623C5.50284 2.91432 6.07445 2.99928 6.86808 3.17931C7.22845 3.27911 7.59152 3.38295 7.96403 3.51241L8.11858 3.57243C8.44319 3.70055 8.78533 3.83675 9.12884 3.99724C10.0642 4.45845 10.8524 4.93584 11.5469 5.46112C12.2804 5.9891 13.0484 6.68632 13.8812 7.58785L14.1167 7.86834C14.4008 8.20617 14.6937 8.55614 14.9556 8.96004L15.1114 9.18794C15.2228 9.3491 15.3348 9.51025 15.4381 9.68017L15.872 10.4583C16.5064 11.6983 16.8984 12.8763 17.0807 14.0779L17.4147 15.5189L17.5072 15.7596C17.5355 15.8324 17.5632 15.9127 17.5902 15.9929C17.6246 16.0927 17.6577 16.1952 17.7049 16.2936C18.0633 17.1311 18.5229 17.9187 18.8846 18.5141L18.9372 18.5916C19.3941 19.2659 19.826 19.9018 20.3058 20.4581C20.8201 21.1013 21.3606 21.663 21.8236 22.1283C21.9626 22.2713 22.0989 22.3947 22.2339 22.5147C22.3507 22.6199 22.466 22.7237 22.5767 22.8329C22.6928 22.9381 22.8264 23.0454 22.9567 23.1499C23.0673 23.2389 23.174 23.3252 23.2786 23.4155C23.7334 23.7601 24.1323 24.0581 24.4785 24.2625C24.5682 24.3137 24.6512 24.3683 24.7295 24.4189C24.8125 24.4728 24.8881 24.5241 24.961 24.5611L25.7188 24.9651C25.9247 25.0783 26.0381 25.311 25.9989 25.5429C25.9611 25.7762 25.7809 25.959 25.5488 26.0021C25.5353 26.0035 25.5211 26.0061 25.5056 26.0075C25.4347 26.019 25.3072 26.0365 25.1216 26.0561L24.9772 26.0695C24.7956 26.0884 24.5716 26.11 24.3124 26.11ZM5.50554 4.05926C5.77412 4.24403 6.06837 4.46385 6.39905 4.71333C6.53402 4.82998 6.6393 4.91427 6.74593 5.00057C6.88494 5.11117 7.02531 5.22445 7.16434 5.35121C7.28243 5.46584 7.38569 5.55889 7.49097 5.6533C7.64415 5.79018 7.80072 5.93111 7.9519 6.08889C8.46074 6.60136 9.01006 7.1718 9.53174 7.82586C10.0358 8.41116 10.5029 9.0996 10.955 9.76378L11.034 9.88044C11.4632 10.5945 11.9315 11.3989 12.2838 12.2425C12.6422 13.1204 12.879 13.9404 12.9897 14.6875L13.1658 15.6065C13.1712 15.6301 13.1753 15.6558 13.1841 15.6854L13.4506 16.5607C13.483 16.6618 13.5154 16.763 13.5505 16.8573L13.7185 17.2404C13.757 17.3199 13.7982 17.4157 13.84 17.5114C13.9109 17.6753 13.9817 17.8398 14.0688 17.9888L14.496 18.7602C14.5817 18.9018 14.6863 19.0515 14.7895 19.1998L14.9454 19.4251C15.1836 19.7946 15.4516 20.1128 15.735 20.4493L15.9273 20.6792C16.6832 21.4985 17.3952 22.1492 18.0849 22.6455C18.7368 23.1391 19.4663 23.5801 20.326 24.0028C20.621 24.1417 20.9247 24.2611 21.2121 24.3744L21.3957 24.4472C21.723 24.5605 22.0625 24.6556 22.3756 24.7426C22.8122 24.8416 23.1713 24.9077 23.477 24.9442C23.2016 24.756 22.9067 24.5328 22.5747 24.2799C22.4532 24.1761 22.3554 24.0979 22.2568 24.0183C22.1083 23.8997 21.9585 23.7776 21.8101 23.6434C21.6953 23.5315 21.5921 23.4385 21.4868 23.344C21.3336 23.2065 21.1777 23.0662 21.0266 22.9098C20.5467 22.4277 19.9805 21.8383 19.4467 21.1701C18.9379 20.5808 18.4689 19.889 18.0133 19.2187L17.9445 19.1169C17.5483 18.4655 17.0638 17.6328 16.6926 16.7596C16.6339 16.6443 16.5819 16.4973 16.5327 16.3496C16.5104 16.2855 16.4895 16.2215 16.4645 16.1574L16.1649 15.2215C16.1501 15.1777 16.1359 15.1103 16.1237 15.0408C16.1217 15.0341 16.1116 14.9788 16.1102 14.9734L16.0043 14.3901C15.9969 14.3679 15.9914 14.3443 15.9874 14.32C15.984 14.2964 15.9786 14.2701 15.9766 14.2458C15.9739 14.2323 15.9712 14.2209 15.9705 14.2148H15.9712C15.9712 14.2141 15.9712 14.2134 15.9712 14.2128C15.8066 13.144 15.4509 12.086 14.8874 10.9836L14.473 10.2398C14.3927 10.109 14.2935 9.96675 14.195 9.82447L14.0229 9.57228C13.7948 9.2203 13.535 8.91148 13.261 8.58512L13.041 8.32079C12.2798 7.4995 11.5671 6.8495 10.8842 6.3586C10.2356 5.86772 9.50609 5.42674 8.64429 5.00328C8.33183 4.85493 8.01195 4.73086 7.70962 4.61083L7.57465 4.55757C7.24801 4.44496 6.90924 4.34786 6.59475 4.26088C6.1669 4.16445 5.81058 4.09838 5.50554 4.05926Z" fill="white"/>
</svg>
