<svg width="35" height="31" viewBox="0 0 35 31" fill="none" xmlns="http://www.w3.org/2000/svg">
<path d="M31.625 10.1562H30.1469C30.1805 9.68594 30.2141 9.24922 30.2309 8.87969C30.2813 8.10703 29.6598 7.46875 28.8871 7.46875H2.11291C1.34025 7.46875 0.735563 8.12383 0.769157 8.87969C1.0547 13.8684 2.91916 30.3125 15.5 30.3125C22.6219 30.3125 26.3172 25.0383 28.2153 19.5625H30.2813C30.3485 19.5625 32.3137 19.5457 32.9688 18.2188C33.6238 16.8582 34.3125 14.1707 34.3125 12.8438C34.3125 11.5168 32.9352 10.1562 31.625 10.1562ZM22.202 26.634C20.3375 28.1793 18.0867 28.9688 15.5 28.9688C12.9133 28.9688 10.6625 28.1793 8.79806 26.634C7.20236 25.307 5.84181 23.3754 4.76681 20.923C2.80158 16.4551 2.26408 11.416 2.1297 8.8125H28.9039C28.7528 11.416 28.2153 16.4719 26.2668 20.9398C25.175 23.3754 23.8145 25.307 22.202 26.634ZM31.7594 17.6309C31.541 18.0676 30.6508 18.2188 30.2813 18.2188H29.1223L30.6844 11.5H31.625C32.1961 11.5 32.9688 12.2727 32.9688 12.8438C32.9688 13.9523 32.3305 16.4551 31.7594 17.6309Z" fill="white"/>
<path d="M26.7035 10.1562H4.2965C3.89337 10.1562 3.59103 10.509 3.62462 10.8953C3.91017 13.4148 4.53165 17.1102 5.97618 20.3855C8.10939 25.2566 11.2168 27.625 15.4832 27.625C19.7496 27.625 22.857 25.2566 24.9902 20.3855C26.4348 17.1102 27.0563 13.4148 27.3418 10.8953C27.409 10.509 27.0899 10.1562 26.7035 10.1562Z" fill="white"/>
<path d="M13.4844 4.44536C13.4844 4.47895 13.4844 4.52934 13.5012 4.56294C13.518 4.64692 13.518 4.73091 13.5348 4.81489C13.5684 4.96606 13.602 5.10044 13.6355 5.23481C13.7195 5.48677 13.8035 5.68833 13.8707 5.8227C13.9043 5.88989 13.9379 5.94028 13.9547 5.97388C13.9715 6.00747 13.9883 6.02427 13.9883 6.02427C14.0219 6.07466 14.0891 6.12505 14.1563 6.10825C14.2402 6.09145 14.3074 6.00747 14.2906 5.90669V5.88989C14.2906 5.88989 14.2738 5.80591 14.257 5.67153C14.2402 5.53716 14.2066 5.3356 14.173 5.10044C14.1562 4.98286 14.1395 4.86528 14.1395 4.73091C14.1395 4.66372 14.1395 4.59653 14.1395 4.54614C14.1395 4.51255 14.1395 4.47895 14.1395 4.42856V4.39497V4.37817V4.34458C14.1563 4.2438 14.1898 4.15981 14.257 4.05903C14.3242 3.95825 14.425 3.85747 14.5426 3.6895C14.593 3.60552 14.6602 3.52153 14.7105 3.40396C14.7273 3.35356 14.7441 3.30317 14.7609 3.23599C14.7777 3.1856 14.7945 3.11841 14.7945 3.06802C14.7945 3.03442 14.8113 3.00083 14.8113 2.98403V2.91685V2.84966V2.83286V2.81606V2.78247C14.8113 2.69849 14.7945 2.6145 14.7777 2.53052C14.7273 2.19458 14.6602 1.90903 14.593 1.67388C14.5258 1.42192 14.4418 1.23716 14.3914 1.08599C14.341 0.951612 14.3074 0.867627 14.3074 0.867627C14.2738 0.800439 14.2066 0.766846 14.1395 0.766846C14.0387 0.783643 13.9883 0.867627 13.9883 0.951611C13.9883 0.951611 14.0051 1.0356 14.0219 1.16997C14.0387 1.30435 14.0555 1.52271 14.0891 1.75786C14.1227 1.99302 14.1395 2.27856 14.1563 2.56411C14.1563 2.6313 14.1563 2.71528 14.1563 2.78247C14.1563 2.79927 14.1395 2.95044 14.1395 2.96724C14.1227 3.00083 14.1059 3.05122 14.0891 3.10161C14.0723 3.152 14.0387 3.20239 14.0051 3.25278C13.9211 3.35356 13.8035 3.48794 13.6859 3.65591C13.5684 3.84067 13.5012 4.07583 13.5012 4.27739V4.36138C13.5012 4.37817 13.5012 4.37817 13.5012 4.41177L13.4844 4.44536Z" fill="white"/>
<path d="M14.8281 4.41177V4.44536C14.8281 4.47895 14.8281 4.52934 14.8449 4.56294C14.8617 4.64692 14.8617 4.73091 14.8785 4.81489C14.9121 4.96606 14.9457 5.10044 14.9793 5.23481C15.0633 5.48677 15.1473 5.68833 15.2145 5.8227C15.248 5.88989 15.2816 5.94028 15.2984 5.97388C15.3152 6.00747 15.332 6.02427 15.332 6.02427C15.3656 6.07466 15.4328 6.12505 15.5 6.10825C15.584 6.09145 15.6512 6.00747 15.6344 5.90669V5.88989C15.6344 5.88989 15.6176 5.80591 15.6008 5.67153C15.584 5.53716 15.5504 5.3356 15.5168 5.10044C15.5 4.98286 15.4832 4.86528 15.4832 4.73091C15.4832 4.66372 15.4832 4.59653 15.4832 4.54614C15.4832 4.51255 15.4832 4.47895 15.4832 4.42856V4.39497V4.37817V4.34458C15.5 4.2438 15.5336 4.15981 15.6008 4.05903C15.668 3.95825 15.7688 3.85747 15.8863 3.6895C15.9367 3.60552 16.0039 3.52153 16.0543 3.40396C16.0711 3.35356 16.0879 3.30317 16.1047 3.23599C16.1215 3.1856 16.1383 3.11841 16.1383 3.06802C16.1383 3.03442 16.1551 3.00083 16.1551 2.98403V2.91685V2.84966V2.83286V2.81606V2.78247C16.1551 2.69849 16.1383 2.6145 16.1215 2.53052C16.0711 2.19458 16.0039 1.90903 15.9367 1.67388C15.8695 1.42192 15.7855 1.23716 15.7352 1.08599C15.6848 0.951612 15.6512 0.867627 15.6512 0.867627C15.6176 0.800439 15.5504 0.766846 15.4832 0.766846C15.3824 0.783643 15.332 0.867627 15.332 0.951611C15.332 0.951611 15.3488 1.0356 15.3656 1.16997C15.3824 1.30435 15.3992 1.52271 15.4328 1.75786C15.4664 1.99302 15.4832 2.27856 15.5 2.56411C15.5 2.6313 15.5 2.71528 15.5 2.78247C15.5 2.79927 15.4832 2.95044 15.4832 2.96724C15.4664 3.00083 15.4496 3.05122 15.4328 3.10161C15.416 3.152 15.3824 3.20239 15.3488 3.25278C15.2648 3.35356 15.1473 3.48794 15.0297 3.65591C14.9121 3.84067 14.8449 4.07583 14.8449 4.27739V4.36138C14.8281 4.39497 14.8281 4.39497 14.8281 4.41177Z" fill="white"/>
<path d="M16.1719 4.41177V4.44536C16.1719 4.47895 16.1719 4.52934 16.1887 4.56294C16.2055 4.64692 16.2055 4.73091 16.2223 4.81489C16.2559 4.96606 16.2895 5.10044 16.323 5.23481C16.407 5.48677 16.491 5.68833 16.5582 5.8227C16.5918 5.88989 16.6254 5.94028 16.6422 5.97388C16.659 6.00747 16.6758 6.02427 16.6758 6.02427C16.7094 6.07466 16.7766 6.12505 16.8437 6.10825C16.9277 6.09145 16.9949 6.00747 16.9781 5.90669V5.88989C16.9781 5.88989 16.9613 5.80591 16.9445 5.67153C16.9277 5.53716 16.8941 5.3356 16.8605 5.10044C16.8438 4.98286 16.827 4.86528 16.827 4.73091C16.827 4.66372 16.827 4.59653 16.827 4.54614C16.827 4.51255 16.827 4.47895 16.827 4.42856V4.39497V4.37817V4.34458C16.8437 4.2438 16.8773 4.15981 16.9445 4.05903C17.0117 3.95825 17.1125 3.85747 17.2301 3.6895C17.2805 3.60552 17.3477 3.52153 17.398 3.40396C17.4148 3.35356 17.4316 3.30317 17.4484 3.23599C17.4652 3.1856 17.482 3.11841 17.482 3.06802C17.482 3.03442 17.4988 3.00083 17.4988 2.98403V2.91685V2.84966V2.83286V2.81606V2.78247C17.4988 2.69849 17.482 2.6145 17.4652 2.53052C17.4148 2.19458 17.3477 1.90903 17.2805 1.67388C17.2133 1.42192 17.1293 1.23716 17.0789 1.08599C17.0285 0.951612 16.9949 0.867627 16.9949 0.867627C16.9613 0.800439 16.8941 0.766846 16.827 0.766846C16.7262 0.783643 16.6758 0.867627 16.6758 0.951611C16.6758 0.951611 16.6926 1.0356 16.7094 1.16997C16.7262 1.30435 16.743 1.52271 16.7766 1.75786C16.8102 1.99302 16.827 2.27856 16.8437 2.56411C16.8437 2.6313 16.8437 2.71528 16.8437 2.78247C16.8437 2.79927 16.827 2.95044 16.827 2.96724C16.8102 3.00083 16.7934 3.05122 16.7766 3.10161C16.7598 3.152 16.7262 3.20239 16.6926 3.25278C16.6086 3.35356 16.491 3.48794 16.3734 3.65591C16.2559 3.84067 16.1887 4.07583 16.1887 4.27739V4.36138C16.1719 4.39497 16.1719 4.39497 16.1719 4.41177Z" fill="white"/>
</svg>
