<svg width="33" height="28" viewBox="0 0 33 28" fill="none" xmlns="http://www.w3.org/2000/svg">
<g clip-path="url(#clip0)">
<path d="M19.9262 27.9589C19.8331 27.9418 19.749 27.8934 19.6886 27.8222C19.6281 27.751 19.595 27.6614 19.595 27.5689C19.595 27.4763 19.6281 27.3867 19.6886 27.3155C19.749 27.2443 19.8331 27.1959 19.9262 27.1788H27.5631C27.6563 27.1959 27.7403 27.2443 27.8008 27.3155C27.8613 27.3867 27.8944 27.4763 27.8944 27.5689C27.8944 27.6614 27.8613 27.751 27.8008 27.8222C27.7403 27.8934 27.6563 27.9418 27.5631 27.9589H19.9262Z" fill="#4D443C"/>
<path d="M23.8217 26.1114C23.7286 26.0942 23.6445 26.0459 23.5841 25.9747C23.5236 25.9035 23.4905 25.8139 23.4905 25.7213C23.4905 25.6288 23.5236 25.5392 23.5841 25.468C23.6445 25.3967 23.7286 25.3484 23.8217 25.3313H26.2319C26.325 25.3484 26.4091 25.3967 26.4696 25.468C26.53 25.5392 26.5631 25.6288 26.5631 25.7213C26.5631 25.8139 26.53 25.9035 26.4696 25.9747C26.4091 26.0459 26.325 26.0942 26.2319 26.1114H23.8217Z" fill="#4D443C"/>
<path d="M23.0369 27.2609C22.9782 27.2717 22.9178 27.2697 22.86 27.2551C22.8022 27.2405 22.7483 27.2136 22.7024 27.1763C22.6564 27.1391 22.6194 27.0924 22.594 27.0396C22.5686 26.9868 22.5554 26.9292 22.5554 26.8709C22.5554 26.8125 22.5686 26.7549 22.594 26.7021C22.6194 26.6493 22.6564 26.6026 22.7024 26.5654C22.7483 26.5282 22.8022 26.5013 22.86 26.4867C22.9178 26.472 22.9782 26.4701 23.0369 26.4808H32.6076C32.6663 26.4701 32.7267 26.472 32.7846 26.4867C32.8424 26.5013 32.8962 26.5282 32.9422 26.5654C32.9882 26.6026 33.0252 26.6493 33.0506 26.7021C33.076 26.7549 33.0891 26.8125 33.0891 26.8709C33.0891 26.9292 33.076 26.9868 33.0506 27.0396C33.0252 27.0924 32.9882 27.1391 32.9422 27.1763C32.8962 27.2136 32.8424 27.2405 32.7846 27.2551C32.7267 27.2697 32.6663 27.2717 32.6076 27.2609H23.0369Z" fill="#4D443C"/>
<path fill-rule="evenodd" clip-rule="evenodd" d="M3.47523 19.6656H24.1861C24.9287 19.6656 25.7975 20.3088 25.5873 21.0341L23.8217 25.6734C23.4434 26.6724 22.9249 27.6167 21.8319 27.6167H5.84338C4.75039 27.6167 4.23191 26.6724 3.85357 25.6734L2.11599 20.9794C1.86376 20.2951 2.73255 19.6108 3.51726 19.6108" fill="white"/>
<path d="M13.8307 20.0489H3.47525C3.35004 20.0279 3.22211 20.0279 3.0969 20.0489C2.9222 20.1087 2.76397 20.207 2.63448 20.3362C2.54237 20.4227 2.48728 20.5401 2.48034 20.6647C2.47407 20.7009 2.47407 20.7379 2.48034 20.7742L4.20391 25.5366C4.35019 25.9808 4.57291 26.3973 4.86251 26.7683C4.97779 26.9106 5.12483 27.0252 5.2924 27.1035C5.45998 27.1817 5.64364 27.2216 5.82939 27.2199H21.8039C21.9897 27.2216 22.1733 27.1817 22.3409 27.1035C22.5085 27.0252 22.6555 26.9106 22.7708 26.7683C23.0604 26.3973 23.2831 25.9808 23.4294 25.5366L25.223 20.8563C25.229 20.82 25.229 20.7831 25.223 20.7468C25.2161 20.6222 25.161 20.5048 25.0689 20.4184C24.9394 20.2891 24.7812 20.1908 24.6065 20.131C24.4813 20.11 24.3533 20.11 24.2281 20.131L13.8307 20.0489ZM3.47525 19.2688H24.1861C24.4066 19.2737 24.6246 19.3153 24.8307 19.392C25.1283 19.4936 25.3971 19.6624 25.6154 19.8846C25.8505 20.1137 25.986 20.4225 25.9937 20.7468C25.9937 20.8776 25.97 21.0073 25.9237 21.13L24.1861 25.8103C24.0099 26.3404 23.7395 26.8361 23.3873 27.2747C23.201 27.5068 22.9626 27.6941 22.6905 27.8222C22.4185 27.9504 22.12 28.0158 21.8179 28.0137H5.8434C5.54137 28.0158 5.24284 27.9504 4.97077 27.8222C4.6987 27.6941 4.46033 27.5068 4.27397 27.2747C3.92181 26.8361 3.65144 26.3404 3.47525 25.8103L1.73767 21.1163C1.69135 20.9936 1.66763 20.8639 1.6676 20.7331C1.6753 20.4089 1.81083 20.1 2.04595 19.871C2.25795 19.6576 2.51664 19.4938 2.80263 19.392C3.01748 19.3119 3.2453 19.2702 3.47525 19.2688Z" fill="#4D443C"/>
<path d="M13.4803 19.6794C13.4692 19.622 13.4713 19.563 13.4862 19.5066C13.5012 19.4501 13.5287 19.3975 13.5669 19.3526C13.605 19.3077 13.6528 19.2716 13.7068 19.2468C13.7609 19.222 13.8199 19.2091 13.8796 19.2091C13.9394 19.2091 13.9984 19.222 14.0524 19.2468C14.1065 19.2716 14.1543 19.3077 14.1924 19.3526C14.2306 19.3975 14.2581 19.4501 14.273 19.5066C14.288 19.563 14.29 19.622 14.279 19.6794V23.7849C14.29 23.8423 14.288 23.9013 14.273 23.9577C14.2581 24.0142 14.2306 24.0668 14.1924 24.1117C14.1543 24.1566 14.1065 24.1927 14.0524 24.2175C13.9984 24.2423 13.9394 24.2552 13.8796 24.2552C13.8199 24.2552 13.7609 24.2423 13.7068 24.2175C13.6528 24.1927 13.605 24.1566 13.5669 24.1117C13.5287 24.0668 13.5012 24.0142 13.4862 23.9577C13.4713 23.9013 13.4692 23.8423 13.4803 23.7849V19.6794Z" fill="#4D443C"/>
<path d="M13.4242 25.5366C13.4417 25.4457 13.4912 25.3636 13.5641 25.3045C13.6371 25.2455 13.7288 25.2131 13.8236 25.2131C13.9183 25.2131 14.0101 25.2455 14.083 25.3045C14.1559 25.3636 14.2054 25.4457 14.2229 25.5366V27.4799C14.2054 27.5709 14.1559 27.653 14.083 27.712C14.0101 27.7711 13.9183 27.8034 13.8236 27.8034C13.7288 27.8034 13.6371 27.7711 13.5641 27.712C13.4912 27.653 13.4417 27.5709 13.4242 27.4799V25.5366Z" fill="#4D443C"/>
<path d="M9.80896 27.3704C9.81035 27.4634 9.77828 27.5539 9.71833 27.6261C9.65839 27.6984 9.57438 27.7478 9.48096 27.7657C9.38754 27.7836 9.29064 27.7689 9.20717 27.7242C9.1237 27.6795 9.05896 27.6076 9.02424 27.521L7.49685 19.8846C7.47516 19.8305 7.46589 19.7724 7.46971 19.7144C7.47353 19.6564 7.49035 19.5999 7.51897 19.549C7.54759 19.498 7.58732 19.4539 7.63534 19.4196C7.68337 19.3852 7.73853 19.3617 7.79692 19.3505C7.8553 19.3393 7.9155 19.3407 7.97324 19.3547C8.03099 19.3687 8.08488 19.395 8.13111 19.4316C8.17734 19.4682 8.21477 19.5142 8.24077 19.5665C8.26677 19.6188 8.28069 19.676 8.28157 19.7341L9.80896 27.3704Z" fill="#4D443C"/>
<path d="M20.0803 22.4711C20.0794 22.5292 20.0655 22.5864 20.0395 22.6387C20.0135 22.691 19.9761 22.737 19.9298 22.7736C19.8836 22.8102 19.8297 22.8365 19.772 22.8505C19.7142 22.8645 19.654 22.8659 19.5956 22.8547C19.5372 22.8435 19.4821 22.8199 19.4341 22.7856C19.386 22.7513 19.3463 22.7071 19.3177 22.6562C19.2891 22.6053 19.2723 22.5488 19.2684 22.4908C19.2646 22.4328 19.2739 22.3747 19.2956 22.3206L19.8281 19.7341C19.8289 19.676 19.8429 19.6188 19.8689 19.5665C19.8949 19.5142 19.9323 19.4682 19.9785 19.4316C20.0247 19.395 20.0786 19.3687 20.1364 19.3547C20.1941 19.3407 20.2543 19.3393 20.3127 19.3505C20.3711 19.3617 20.4263 19.3852 20.4743 19.4196C20.5223 19.4539 20.562 19.498 20.5907 19.549C20.6193 19.5999 20.6361 19.6564 20.6399 19.7144C20.6437 19.7724 20.6345 19.8305 20.6128 19.8846L20.0803 22.4711ZM19.0433 27.5347C19.021 27.6417 18.9561 27.7358 18.8628 27.7961C18.7695 27.8564 18.6555 27.878 18.5459 27.8563C18.4363 27.8345 18.34 27.7711 18.2782 27.68C18.2165 27.5888 18.1943 27.4775 18.2166 27.3704L18.9172 23.9218C18.9181 23.8637 18.932 23.8064 18.958 23.7542C18.984 23.7019 19.0215 23.6558 19.0677 23.6193C19.1139 23.5827 19.1678 23.5564 19.2256 23.5424C19.2833 23.5284 19.3435 23.5269 19.4019 23.5381C19.4603 23.5493 19.5154 23.5729 19.5635 23.6072C19.6115 23.6415 19.6512 23.6857 19.6798 23.7367C19.7085 23.7876 19.7253 23.8441 19.7291 23.9021C19.7329 23.9601 19.7236 24.0182 19.7019 24.0723L19.0433 27.5347Z" fill="#4D443C"/>
<path fill-rule="evenodd" clip-rule="evenodd" d="M20.3185 11.5502C21.2304 11.3485 22.1805 11.3842 23.0738 11.6537C23.9671 11.9232 24.7723 12.4171 25.4087 13.0859C26.0452 13.7548 26.4907 14.5751 26.7006 15.4649C26.9105 16.3547 26.8774 17.2827 26.6048 18.1561C26.3321 19.0295 25.8294 19.8177 25.1469 20.4417C24.4643 21.0658 23.626 21.5039 22.7157 21.7121C21.8054 21.9204 20.855 21.8915 19.9597 21.6284C19.0644 21.3654 18.2556 20.8773 17.6141 20.213C16.6719 21.1955 15.3771 21.7841 14.0007 21.8555C12.6242 21.9269 11.2729 21.4757 10.2294 20.5962L9.57078 20.4046C9.00629 20.958 8.32171 21.3804 7.5676 21.6408C6.8135 21.9011 6.00914 21.9926 5.21395 21.9085C4.41877 21.8245 3.65309 21.567 2.97347 21.1551C2.29386 20.7433 1.71768 20.1876 1.28751 19.529C0.857336 18.8705 0.584164 18.126 0.488174 17.3505C0.392184 16.575 0.475829 15.7884 0.732929 15.0487C0.99003 14.309 1.41402 13.6352 1.97356 13.077C2.53311 12.5189 3.21391 12.0906 3.96568 11.8239C4.20146 9.89217 5.14585 8.10923 6.62403 6.80512C8.10222 5.50102 10.0141 4.76407 12.0058 4.73068C13.9975 4.69729 15.9342 5.36971 17.4573 6.62349C18.9805 7.87727 19.987 9.62751 20.2905 11.5502" fill="white"/>
<path d="M21.0191 11.8514L20.5007 11.9335C20.3971 11.9454 20.2927 11.918 20.2092 11.8568C20.1257 11.7957 20.0695 11.7055 20.0523 11.605C19.7703 9.77223 18.8167 8.1017 17.3686 6.90387C15.9205 5.70604 14.0763 5.06238 12.1788 5.09248C10.2814 5.12259 8.45959 5.82442 7.05206 7.06755C5.64454 8.31069 4.74697 10.0106 4.52615 11.8514C4.51756 11.9249 4.48807 11.9947 4.44102 12.0527C4.39397 12.1107 4.33124 12.1548 4.25991 12.1798C3.55159 12.415 2.90713 12.8041 2.37502 13.3177C1.84292 13.8313 1.43703 14.4561 1.18792 15.145C0.938814 15.834 0.852968 16.5692 0.936846 17.2952C1.02072 18.0213 1.27214 18.7193 1.67218 19.3367C2.07221 19.9541 2.61044 20.4749 3.24635 20.8598C3.88225 21.2447 4.59928 21.4837 5.34345 21.5589C6.08762 21.634 6.83955 21.5433 7.54264 21.2936C8.24574 21.0439 8.88167 20.6417 9.40259 20.1173C9.45508 20.0668 9.52062 20.0313 9.59219 20.0144C9.66377 19.9975 9.73869 20 9.80896 20.0215L10.1172 20.1173L10.4255 20.1994C10.4874 20.2135 10.545 20.2417 10.5937 20.2815C11.5589 21.0984 12.8109 21.5177 14.0863 21.4514C15.3617 21.385 16.561 20.8381 17.4319 19.9257C17.5074 19.8554 17.6078 19.8162 17.7121 19.8162C17.8165 19.8162 17.9168 19.8554 17.9924 19.9257C18.553 20.5116 19.2541 20.952 20.0325 21.2072C20.8109 21.4624 21.6422 21.5244 22.4512 21.3875C23.2603 21.2506 24.0217 20.9191 24.6668 20.423C25.3119 19.9269 25.8204 19.2818 26.1465 18.5458C26.4725 17.8098 26.6059 17.0061 26.5344 16.2073C26.463 15.4084 26.1891 14.6394 25.7373 13.9698C25.2856 13.3001 24.6703 12.7509 23.9469 12.3715C23.2235 11.9921 22.4148 11.7945 21.5937 11.7966H21.0332L21.0191 11.8514ZM20.7249 11.0439H20.9491H21.5937C22.5292 11.0431 23.4508 11.2654 24.2784 11.6915C25.106 12.1176 25.8145 12.7346 26.3424 13.489C26.8703 14.2433 27.2016 15.1122 27.3074 16.02C27.4133 16.9278 27.2905 17.8472 26.9498 18.6981C26.6091 19.5491 26.0608 20.3059 25.3525 20.9028C24.6442 21.4998 23.7974 21.9188 22.8856 22.1234C21.9738 22.328 21.0246 22.312 20.1206 22.0769C19.2165 21.8417 18.385 21.3945 17.6981 20.7742C16.6762 21.6988 15.3443 22.2283 13.9517 22.2635C12.559 22.2988 11.2009 21.8374 10.1313 20.9657L9.80896 20.8836H9.69686C9.0756 21.4312 8.33936 21.8396 7.53964 22.0802C6.73991 22.3209 5.89601 22.3881 5.06694 22.277C4.23788 22.1659 3.44366 21.8793 2.73984 21.4372C2.03603 20.9951 1.4396 20.4081 0.992269 19.7174C0.544939 19.0267 0.257509 18.2489 0.150079 17.4384C0.0426489 16.6279 0.117813 15.8043 0.370315 15.0251C0.622817 14.2459 1.04656 13.53 1.61191 12.9274C2.17726 12.3249 2.87057 11.8502 3.64335 11.5366C3.93325 9.56709 4.92714 7.76119 6.44917 6.43845C7.97119 5.11571 9.92324 4.36139 11.9599 4.30896C13.9966 4.25653 15.9866 4.90937 17.5779 6.15196C19.1692 7.39456 20.2591 9.14681 20.6548 11.0987L20.7249 11.0439Z" fill="#4D443C"/>
<path d="M19.8982 11.3724C19.8832 11.3171 19.8806 11.2592 19.8907 11.2028C19.9007 11.1464 19.9232 11.0928 19.9565 11.0456C19.9897 10.9985 20.0331 10.9589 20.0835 10.9297C20.1339 10.9004 20.1902 10.8822 20.2485 10.8762C20.3068 10.8702 20.3657 10.8766 20.4213 10.895C20.4768 10.9133 20.5276 10.9432 20.5702 10.9825C20.6128 11.0219 20.6462 11.0698 20.6681 11.1229C20.6899 11.176 20.6998 11.2331 20.6969 11.2903C20.8272 12.1295 20.8272 12.983 20.6969 13.8221C20.5435 14.5417 20.2889 15.2371 19.9402 15.8886C19.9172 15.9344 19.8852 15.9753 19.846 16.0091C19.8068 16.0428 19.7611 16.0687 19.7117 16.0852C19.6622 16.1017 19.61 16.1086 19.5578 16.1054C19.5056 16.1022 19.4546 16.0889 19.4077 16.0665C19.3608 16.044 19.3189 16.0127 19.2843 15.9744C19.2498 15.9362 19.2233 15.8916 19.2064 15.8433C19.1894 15.795 19.1824 15.7439 19.1857 15.693C19.189 15.6421 19.2026 15.5923 19.2256 15.5464C19.5212 14.9568 19.7333 14.3307 19.8561 13.6852C19.9741 12.9232 19.9741 12.1482 19.8561 11.3861" fill="#4D443C"/>
<path fill-rule="evenodd" clip-rule="evenodd" d="M17.0535 1.66956C16.4992 1.66956 15.9574 1.83008 15.4965 2.13083C15.0356 2.43158 14.6764 2.85905 14.4643 3.35918C14.2522 3.85931 14.1967 4.40964 14.3048 4.94058C14.413 5.47151 14.6799 5.95921 15.0718 6.34199C15.4638 6.72477 15.9631 6.98545 16.5068 7.09106C17.0504 7.19667 17.6139 7.14247 18.126 6.93531C18.6381 6.72815 19.0758 6.37733 19.3838 5.92723C19.6917 5.47712 19.8561 4.94794 19.8561 4.4066C19.8561 3.68069 19.5608 2.98451 19.0352 2.47122C18.5096 1.95792 17.7968 1.66956 17.0535 1.66956Z" fill="white"/>
<path d="M14.7555 2.21694C15.2888 1.69459 15.991 1.36896 16.7425 1.29551C17.494 1.22207 18.2484 1.40536 18.8771 1.81416C19.5058 2.22297 19.9699 2.83199 20.1904 3.53749C20.4108 4.24299 20.374 5.00133 20.0863 5.68331C19.7985 6.36529 19.2775 6.92874 18.6121 7.27767C17.9466 7.6266 17.1779 7.73942 16.4368 7.59692C15.6958 7.45442 15.0283 7.06541 14.5479 6.49616C14.0676 5.92691 13.8042 5.21264 13.8026 4.47501C13.801 4.05583 13.8843 3.64048 14.0479 3.25292C14.2114 2.86536 14.4519 2.51326 14.7555 2.21694ZM17.0676 2.06641C16.4962 2.07319 15.9449 2.27356 15.508 2.63329C15.071 2.99303 14.7756 3.48978 14.6721 4.03867C14.5686 4.58756 14.6635 5.15451 14.9406 5.64264C15.2177 6.13076 15.6597 6.50977 16.1912 6.71488C16.7227 6.91999 17.3106 6.93848 17.8545 6.76719C18.3984 6.59589 18.8645 6.24545 19.1731 5.77574C19.4818 5.30603 19.6139 4.74622 19.5467 4.19196C19.4796 3.63771 19.2175 3.12342 18.8052 2.73698C18.5728 2.5181 18.2984 2.34619 17.9979 2.23112C17.6973 2.11604 17.3764 2.06007 17.0536 2.06641H17.0676Z" fill="#4D443C"/>
<path d="M17.7402 3.88656C17.7282 3.93598 17.7064 3.98262 17.676 4.02381C17.6456 4.065 17.6071 4.09994 17.5629 4.12662C17.5187 4.15331 17.4695 4.17122 17.4181 4.17935C17.3668 4.18747 17.3144 4.18563 17.2637 4.17395C17.2131 4.16227 17.1654 4.14097 17.1232 4.11126C17.081 4.08156 17.0453 4.04403 17.0179 4.00082C16.9906 3.95762 16.9723 3.90958 16.964 3.85945C16.9556 3.80931 16.9575 3.75808 16.9695 3.70865C17.1588 2.93044 17.5441 2.21072 18.0905 1.61481C18.7183 0.928074 19.487 0.377893 20.3466 -4.64097e-05C20.3954 -0.0320461 20.4507 -0.0533181 20.5088 -0.0623941C20.5668 -0.0714701 20.6262 -0.0681339 20.6828 -0.0526158C20.7394 -0.0370976 20.7919 -0.00976722 20.8367 0.0274889C20.8814 0.0647451 20.9173 0.11104 20.942 0.163177C20.9666 0.215314 20.9794 0.272052 20.9794 0.329474C20.9794 0.386897 20.9666 0.443636 20.942 0.495775C20.9174 0.547914 20.8814 0.594211 20.8367 0.63147C20.7919 0.668729 20.7395 0.696064 20.6829 0.711586C19.9302 1.02913 19.2528 1.49503 18.693 2.08011C18.2366 2.58451 17.9142 3.19077 17.7542 3.84551" fill="#4D443C"/>
<path d="M8.16949 9.25112C8.13453 9.28886 8.09229 9.3195 8.0452 9.3413C7.99811 9.3631 7.94709 9.37563 7.89504 9.37818C7.84299 9.38072 7.79094 9.37322 7.74186 9.35612C7.69278 9.33901 7.64762 9.31263 7.60898 9.27849C7.57034 9.24434 7.53896 9.2031 7.51664 9.15711C7.49431 9.11112 7.48148 9.06128 7.47888 9.01045C7.47628 8.95962 7.48395 8.90879 7.50147 8.86085C7.51898 8.81292 7.54599 8.76882 7.58095 8.73108C8.17751 8.06841 8.90729 7.53271 9.7249 7.15728C10.5241 6.79578 11.3945 6.60897 12.2752 6.60987C12.3683 6.62697 12.4524 6.67532 12.5129 6.74653C12.5734 6.81775 12.6065 6.90737 12.6065 6.9999C12.6065 7.09242 12.5734 7.18204 12.5129 7.25326C12.4524 7.32448 12.3683 7.37282 12.2752 7.38993C11.5104 7.39075 10.7549 7.55419 10.0612 7.86891C9.34149 8.19402 8.69767 8.65978 8.16949 9.23743V9.25112ZM7.3007 14.7115C7.32461 14.8039 7.31371 14.9016 7.26998 14.9867C7.22625 15.0719 7.15262 15.1388 7.06252 15.1754C6.97243 15.2119 6.87189 15.2155 6.77927 15.1857C6.68664 15.1558 6.60811 15.0944 6.55802 15.0126C6.39749 14.6423 6.27544 14.2572 6.19369 13.863C6.11815 13.4797 6.08061 13.0902 6.08159 12.6998C6.07055 12.6425 6.07258 12.5835 6.08754 12.527C6.10251 12.4705 6.13004 12.418 6.16817 12.3731C6.2063 12.3282 6.2541 12.292 6.30816 12.2672C6.36223 12.2424 6.42122 12.2295 6.48095 12.2295C6.54069 12.2295 6.59968 12.2424 6.65374 12.2672C6.70781 12.292 6.75561 12.3282 6.79374 12.3731C6.83187 12.418 6.8594 12.4705 6.87436 12.527C6.88933 12.5835 6.89136 12.6425 6.88032 12.6998C6.8905 13.0314 6.93273 13.3613 7.00643 13.6851C7.07464 14.0274 7.17792 14.3621 7.31471 14.6842L7.3007 14.7115Z" fill="#A6A19D"/>
</g>
<defs>
<clipPath id="clip0">
<rect width="33" height="28" fill="white"/>
</clipPath>
</defs>
</svg>
