<svg width="32" height="33" viewBox="0 0 32 33" fill="none" xmlns="http://www.w3.org/2000/svg">
<path d="M17.1562 3.50623C17.1562 4.39998 16.4688 4.39998 16.4688 5.22498C16.4688 6.11872 17.1562 6.11872 17.1562 6.94372C17.1562 7.83747 16.4688 7.83747 16.4688 8.73122C16.4688 9.62497 17.1562 9.62497 17.1562 10.5187" stroke="white" stroke-width="2" stroke-miterlimit="10"/>
<path d="M12.1376 0C12.1376 0.89375 11.4501 0.89375 11.4501 1.71875C11.4501 2.6125 12.1376 2.6125 12.1376 3.4375C12.1376 4.33125 11.4501 4.33125 11.4501 5.225C11.4501 6.11875 12.1376 6.11875 12.1376 7.0125" stroke="white" stroke-width="2" stroke-miterlimit="10"/>
<path d="M25.475 16.225H27.1937C29.1875 16.225 30.8375 17.875 30.8375 19.8687C30.8375 21.8625 29.1875 23.5125 27.1937 23.5125H24.1" stroke="white" stroke-width="2" stroke-miterlimit="10"/>
<path d="M11.5187 14.3688V18.2188" stroke="white" stroke-width="2" stroke-miterlimit="10"/>
<path d="M13.5813 24.6812H9.38757V19.7999L10.8313 18.4249H12.1376L13.5813 19.7999V24.6812Z" stroke="white" stroke-width="2" stroke-miterlimit="10"/>
<path d="M14.8188 29.9063H13.7875C8.01253 29.9063 3.33752 25.2313 3.33752 19.4563V13.0625H25.2688V19.4563C25.2688 25.2313 20.5938 29.9063 14.8188 29.9063Z" stroke="white" stroke-width="2" stroke-miterlimit="10"/>
<path d="M22.175 29.3563H28.4312V29.7001C27.6062 31.0063 26.2312 31.7626 24.7187 31.7626H4.7125C3.2 31.7626 1.825 31.0063 1 29.7688V29.4251H6.5" stroke="white" stroke-width="2" stroke-miterlimit="10"/>
</svg>
